<svg width="240" height="240" viewBox="0 0 240 240" xmlns="http://www.w3.org/2000/svg" role="img" aria-label="CuidaBem">
  <defs>
    <linearGradient id="g1" x1="0" y1="0" x2="0" y2="1">
      <stop offset="0" stop-color="#3dd5c6"/>
      <stop offset="1" stop-color="#2d799c"/>
    </linearGradient>
  </defs>
  <!-- Gota -->
  <path d="M120 12 C120 12, 200 92, 200 150 C200 200, 160 228, 120 228 C80 228, 40 200, 40 150 C40 92, 120 12, 120 12 Z" fill="url(#g1)" stroke="#0f2740" stroke-width="6" />
  <!-- Cruz -->
  <rect x="100" y="120" width="40" height="12" fill="#ffffff" rx="6"/>
  <rect x="114" y="106" width="12" height="40" fill="#ffffff" rx="6"/>
  <!-- Mão -->
  <path d="M36 170 C70 170, 120 178, 160 180 C178 181, 194 190, 202 202 C208 212, 200 222, 188 222 L90 222 C70 222, 46 210, 36 198 C30 190, 28 180, 36 170 Z" fill="#0f2740"/>
  <circle cx="86" cy="196" r="8" fill="#ffffff"/>
</svg>